# xmcd CD database file
#
# Track frame offsets:
#	150
#	22474
#	56484
#	77428
#	100478
#	119202
#	147569
#	169951
#
# Disc length: 2602 seconds
#
# Revision: 0
# Processed by: cddbd v1.5.2PL0 Copyright (c) Steve Scherf et al.
# Submitted via: CDex 1.51
#
DISCID=790a2808
DTITLE=Bottos/Goloubev/Colussi - Mulini a Vento
DYEAR=2008
DGENRE=Jazz
TTITLE0=Steve and Nicola
TTITLE1=Play'n on the grass
TTITLE2=SVC
TTITLE3=For all we know
TTITLE4=Mulini a vento
TTITLE5=Down the hill
TTITLE6=Cat's blues
TTITLE7=Bibis
EXTD=YEAR: 2008
EXTT0=
EXTT1=
EXTT2=
EXTT3=
EXTT4=
EXTT5=
EXTT6=
EXTT7=
PLAYORDER=
